<mxfile host="app.diagrams.net" modified="2023-06-23T06:26:48.526Z" agent="Mozilla/5.0 (Windows NT 10.0; Win64; x64) AppleWebKit/537.36 (KHTML, like Gecko) Chrome/114.0.0.0 Safari/537.36" version="21.5.0" etag="h0gJgqUjZw4wY9maGjAa" type="github">
  <diagram name="페이지-1" id="KHabQjuFe1Dy_F7J4gHb">
    <mxGraphModel>
      <root>
        <mxCell id="0" />
        <mxCell id="1" parent="0" />
      </root>
    </mxGraphModel>
  </diagram>
</mxfile>
